<?xml version="1.0" encoding="UTF-8"?>
<svg version="1.1" viewBox="0 0 2000 2000" width="1280" height="1280" xmlns="http://www.w3.org/2000/svg">
<path transform="translate(672,1060)" d="m0 0h67l2 49 1 24v13h2l2-5 16-33 8-17 8-16 8-15h66l-2 12-22 94-10 45-2 1h-45l-2-1 4-19 10-43 9-30v-2l-8 16-8 15-8 16-10 21-10 19-3 7-2 1h-36l-2-1-1-13-1-38-1-20v-18l-3-1-1 10-4 23-12 54-1 3-2 1h-36l-8-1 8-32 19-83 8-34zm121 53 1 2z" fill="#0A49A7"/>
<path transform="translate(951,756)" d="m0 0h106l63 4 45 4 68 9 25 4 7 3 13 13 14 19 12 19 12 22 11 26 5 14v3l-24-2-26-2-30-2-40-2-103-3h-79l-112 4-53 4-84 9-45 7-39 8-36 9-27 8-31 11-25 11-24 14-11 8h-2l2-4 17-13 21-13 27-14 22-10 38-13 28-8 24-6 49-9 26-4 38-4 33-2 8-1 21-1h145l58 2 48 1h55l26-1 25-4 19-5 10-6 6-9v-11l-4-10-6-9-9-10-13-10-16-9-19-7-25-7-31-6-31-4-31-3-47-3-44-1h-67l-48-1 3-2 31-3 4-1z" fill="#0F4CA9"/>
<path transform="translate(1e3 897)" d="m0 0h74l9 1 46 2 42 3 35 2 22 2 30 2 18 2 30 2v2l-22 2-12 2-28 2-12 2-21 2-10 2-21 2-24 5-16 5-5 4 1 4 8 5 16 5 22 5 12 2h20l40-2 37-4 25-5 15-4 20-7 19-9 19-12 9-5h10l8 7 11 13 9 11 8 11 8 17 5 18 1 7h-4l-4-9-6-18-7-13-9-10-8-4-7-2h-25l-21 5-57 20-20 7-15 4-12 3-20 4-32 3h-26l-17-2-12-2-23-6-25-10-17-8-16-10-3-5 4-5 14-6 13-4 22-4 24-4 58-5 27-4h7v-3l-43-1-27-2-52-1h-110l-31 1-64 4-57 5-36 4-50 7-31 6-32 6-13 3h-5l4-2 30-8 37-9 31-6 49-8 17-3 34-4 25-2 5-1 69-3z" fill="#104DA9"/>
<path transform="translate(953,732)" d="m0 0h100l39 2 41 4 39 5 28 5 24 6 27 8-4 1-16-3-46-7-45-5-49-4-65-3h-40l-37 2-40 3-28 3-15 3-21 4-10 2-24 6-24 8-15 6-19 10-16 10-10 8-12 11-11 13-10 19-5 16-4 24-2 2-27 2-6 1 2-6 13-28 9-20 13-29 16-35 9-10 10-6 11-4 20-4 57-8 35-4 23-2 15-2 47-3z" fill="#0E4BA8"/>
<path transform="translate(1538,1057)" d="m0 0h10l22 3 13 5 11 7 8 9 6 12 3 14v9l-4 23-6 18-7 14-10 13-10 10-14 9-14 6-11 3-16 3h-17l-1-2 7-33 1-2 18-2 9-4 8-6 6-9 5-13 4-17v-17l-3-6-4-5-8-3-15-1 1-8 6-26z" fill="#0A49A7"/>
<path transform="translate(1278,1060)" d="m0 0h35l10 3 10 6 7 8 4 9 1 5v11l-3 12-5 10-9 11-8 7-12 6h-2l5 19 12 39 1 5-2 1h-51l-2-1-12-45-1-4v-12l5-21 3-6h11l8-2 5-3 4-7 1-8-4-6-11-1h-7l-1-5 7-30z" fill="#0A49A7"/>
<path transform="translate(484,1060)" d="m0 0h35l13 4 8 6 6 7 4 8 1 4v15l-5 15-7 11-9 9-11 7-7 3 3 11 10 34 4 13v4l-2 1h-50l-2-1-8-30-5-20v-9l6-27 1-2h13l7-2 7-6 3-6-1-9-3-3-5-1-14-1 1-9 6-25z" fill="#0A49A7"/>
<path transform="translate(956,1060)" d="m0 0h33l11 4 6 4 6 7 3 6 1 5v9l-5 15-8 11-8 7-10 4h-2l1 2 7 3 6 5 6 12v13l-5 15-7 10-4 5-11 8-14 6-11 1h-30l-1-4 4-15 4-16 3-2h14l5-5 3-7v-6l-2-4-2-1-14-1 1-10 4-19 2-3h9l6-3 5-6 1-3v-7l-1-3-5-2-9-1v-7l6-24z" fill="#0A49A7"/>
<path transform="translate(1384,1060)" d="m0 0h48l-1 9-13 57-10 43-8 34-2 8-1 1h-44l-4-1 2-10 7-31 9-39 11-48 4-17z" fill="#0A49A7"/>
<path transform="translate(1053,1060)" d="m0 0h47l-1 8-26 114-6 27-2 3h-47l-1-4 6-24 7-31 11-49 9-38z" fill="#0B49A7"/>
<path transform="translate(881,1060)" d="m0 0h47l1 3-8 36-17 74-9 38-1 1h-47l-1-3 9-38 7-32 10-43 7-30z" fill="#0B49A7"/>
<path transform="translate(590,1060)" d="m0 0h48l-1 8-23 102-10 41-7 1h-34l-8-1 4-19 18-79 12-52z" fill="#0B49A7"/>
<path transform="translate(1211,1060)" d="m0 0h40l1 2-17 74-11 48-6 27-2 1h-33l-7-1 2-10 20-88 9-39z" fill="#0B49A7"/>
<path transform="translate(417,1060)" d="m0 0h40l-1 10-15 66-17 75-2 1h-38l-2-1 4-19 12-53 10-43 8-34z" fill="#0B4AA8"/>
<path transform="translate(1508,1062)" d="m0 0h2l-1 8-13 58-16 68-3 11-2 3-6-2-10-6-9-9-7-14-3-12v-14l5-23 6-17 7-13 9-12 8-8 13-9 14-7z" fill="#0A49A7"/>
<path transform="translate(1350,1288)" d="m0 0h231l1 1v11l-184 1h-42l-7-1v-11z" fill="#2059AF"/>
<path transform="translate(419,1288)" d="m0 0h231l1 1v11h-234v-9z" fill="#1E58AE"/>
<path transform="translate(606,848)" d="m0 0h12l10 2 4 5v15l-3 18-3 2-3-9-3-10-6-8-7-3h-14l-14 5-5 4-1 7 1 3 23 1 7 4 12 9 13 4 10 2 5-2 3 1-11 12-4-1-6-4-14-5-16-3-25-1-8-2-6-7-1-2v-9l4-9 7-9 9-6 13-3z" fill="#104DA9"/>
<path transform="translate(1355,852)" d="m0 0h46l8 3 8 6 6 7 4 8v11l-5 8-5 2-21 2-23 2-16 6-7 5-4-2-10-9v-1l20-1 12-5 11-8 4-3 22-1 5-5-1-5-4-5-15-5-12-1-10 5-5 8-3 8-2 9h-3l-2-4-2-18v-12l2-4z" fill="#0E4BA8"/>
<path transform="translate(1101,1175)" d="m0 0 56 1-1 9-5 25-3 2h-56l-1-3 8-33z" fill="#0C4AA8"/>
<path transform="translate(1126,1060)" d="m0 0h56l-1 9-6 26-1 1h-56l1-8 6-26z" fill="#0A48A7"/>
<path transform="translate(1061,1272)" d="m0 0h10l4 4 14 19 4 5 1-28h11l1 1v50l-1 1h-7l-4-2-14-19-6-7-1 27-1 1h-10l-1-1-1-10v-40z" fill="#1B55AD"/>
<path transform="translate(1115,1116)" d="m0 0 41 1 1 3-6 30-1 2h-45l1-8 6-25z" fill="#0C4AA8"/>
<path transform="translate(942,1272)" d="m0 0h30l5 3 5 6 1 3v13l-6 8-1 2 8 16-1 1h-10l-3-1-6-10-2-4-7-1-1 15-1 1h-10l-1-1zm12 11v12l2 2h7l7-2 2-3-1-7-4-2z" fill="#2059AF"/>
<path transform="translate(850,1272)" d="m0 0h30l5 3 5 6 2 7-1 9-4 6-3 3 2 5 6 11v2h-11l-3-1-6-11-2-3-8-1v15l-2 1h-8l-1-1-1-9zm14 10-2 1v13l2 1h8l7-3 1-6-2-4-8-2z" fill="#1D57AE"/>
<path transform="translate(731,1271)" d="m0 0h14l8 3 8 8 3 6-1 4h-9l-8-7-3-1h-10l-5 3-3 5-1 8 3 8 4 3 10 1 7-3 6-6 10 1v5l-7 9-5 4-5 2h-17l-7-3-7-6-4-8-1-5v-9l3-9 8-9z" fill="#1B56AD"/>
<path transform="translate(1e3 1272)" d="m0 0h35l1 2-1 8-21 1-1 9h20v10l-1 1-19 1v8h20l3 3v9h-35l-1-2z" fill="#1A55AD"/>
<path transform="translate(1205,1272)" d="m0 0h12l7 16 12 31-1 5h-9l-2-1-2-6-8-1h-13l-3 7-2 1h-10l-1-2 11-29 8-19zm5 18-4 9-1 6h11l1-2-4-12z" fill="#1A55AD"/>
<path transform="translate(805,1271)" d="m0 0 7 1 10 24 10 26-1 2h-9l-4-4-1-3-5-1h-17l-2 6-2 2h-9l-2-1 3-9 10-26 6-14 2-2zm0 18-5 12 1 4h11l-1-7-4-9z" fill="#1A54AD"/>
<path transform="translate(1125,1272)" d="m0 0h45v8l-1 3-15 1-1 40h-11l-1-1v-39l-16-1-1-8z" fill="#124FAA"/>
<path transform="translate(1255,1272)" d="m0 0h12v40h22l1 1v10l-1 1h-33l-1-1z" fill="#255DB1"/>
<path transform="translate(1e3 1272)" d="m0 0h1l3 17v10l-1 5h-1l-1 18h-1z" fill="#FBFCFD"/>
<path transform="translate(1016,1309)" d="m0 0 1 3h20l1 5h-22z" fill="#FBFCFD"/>
<path transform="translate(720,936)" d="m0 0 2 1v2l-24 5h-5l4-2z" fill="#3C6DB9"/>
<path transform="translate(1072,1292)" d="m0 0 3 1-1 3-1 23h-1z" fill="#FEFEFE"/>
<path transform="translate(689,944)" d="m0 0 4 1-6 1z" fill="#4F7CBF"/>
<path transform="translate(649,894)" d="m0 0" fill="#FEFEFE"/>
</svg>
