<svg xmlns="http://www.w3.org/2000/svg" viewBox="0 0 24 24"><path d="M19.25 14.25v-4.5l-1.374.416 3 4.5c.412.617 1.374.326 1.374-.416v-4.5a.75.75 0 0 0-1.5 0v4.5l1.374-.416-3-4.5c-.412-.617-1.374-.326-1.374.416v4.5a.75.75 0 0 0 1.5 0m3 6a3.75 3.75 0 0 0-3.75-3.75.75.75 0 0 0-.75.75v6c0 .414.336.75.75.75a3.75 3.75 0 0 0 3.75-3.75m-1.5 0a2.25 2.25 0 0 1-2.25 2.25l.75.75v-6l-.75.75a2.25 2.25 0 0 1 2.25 2.25M18.5 4.5H20A2.25 2.25 0 0 0 20 0h-1.5a.75.75 0 0 0-.75.75v6a.75.75 0 0 0 1.5 0v-6l-.75.75H20A.75.75 0 0 1 20 3h-1.5a.75.75 0 0 0 0 1.5M4.25 6.75v4.5A2.25 2.25 0 0 0 6.5 13.5H8a.75.75 0 0 1 .75.75v4.5A2.25 2.25 0 0 0 11 21h3a.75.75 0 0 0 0-1.5h-3a.75.75 0 0 1-.75-.75v-4.5A2.25 2.25 0 0 0 8 12H6.5a.75.75 0 0 1-.75-.75v-4.5a.75.75 0 0 0-1.5 0m3-3a2.25 2.25 0 1 1-4.5 0 2.25 2.25 0 0 1 4.5 0m1.5 0a3.75 3.75 0 1 0-7.5 0 3.75 3.75 0 0 0 7.5 0"></path></svg>